<?xml version="1.0" encoding="utf-8"?>
<!-- Generator: Adobe Illustrator 26.2.1, SVG Export Plug-In . SVG Version: 6.00 Build 0)  -->
<svg version="1.1" id="Layer_1" xmlns="http://www.w3.org/2000/svg" xmlns:xlink="http://www.w3.org/1999/xlink" x="0px" y="0px"
	 viewBox="0 0 297.5 483.9" style="enable-background:new 0 0 297.5 483.9;" xml:space="preserve">
<style type="text/css">
	.st0{fill:#770808;}
</style>
<g>
	<path class="st0" d="M245.8,50.9c-1.2-0.1-1.9-0.4-2.6-0.2c-6.1,1.6-12.2,3.3-18.3,5.1c-10.2,2.9-19.4,7.8-27.8,14.6
		c-5.6,4.5-7.7,10.8-4.6,17.3c2.2,4.7,4.9,9.2,7.5,13.7c1.6,2.7,1.6,4.9-0.9,6.7c-4.1,2.8-8.2,5.8-12.8,7.7
		c-4.6,1.9-9.7,1.8-14.4-0.9c-6.6-3.7-10.2-9.8-13.4-16.2c-2.5-5.1-2.2-5.9,3.2-7.8c8.6-3,12.6-10.7,13.1-18.9
		c0.5-7.5-1.8-14.7-5.4-21.1c-6.1-11-13-21.6-19.6-32.3c-2-3.3-3.1-3.3-5.2,0c-4.9,7.6-9.8,15.2-14.5,22.8c-4.9,8-9,16.4-10.3,25.8
		c-1.1,7.6,0.8,14.7,6.8,19.9c2.7,2.3,6.2,3.5,9.2,5.5c0.9,0.6,1.9,2.5,1.5,3.1c-3.2,5.3-6.3,10.8-10.2,15.7
		c-3.4,4.2-8.5,6.3-13.9,5.7c-6.9-0.8-12.8-4.4-18-8.9c-2.5-2.2-2.4-4-0.7-7c2.7-4.6,5.5-9.1,7.4-14c2.3-5.8,1.8-11.6-3.6-15.7
		c-4.9-3.7-9.8-7.6-15.4-10.1c-8.1-3.7-16.6-6.3-25.1-9.2c-2.8-0.9-5.9-1-9.5-1.5c2.4,6.8,4.5,13,6.9,19.2
		c3.5,9.2,7.3,18.3,10.9,27.5c3.4,8.9,6.7,17.9,10.1,26.9c1.9,5,1.3,5.9-4.1,5.9c-14,0-28,0-42.1,0c-0.9,0-1.7,0-2.6,0.1
		c-2.2,0.2-3.5,1.1-3.3,3.7c0.2,2.8,0.1,5.6,0.1,8.4c0,5.4,0.4,5.8,5.9,5.8c77,0,154,0,230.9,0c7.5,0,9.1,0.5,8.9-8.7
		c-0.3-9.3,1.9-9.3-9.1-9.2c-13.4,0-26.8,0-40.1,0c-3.7,0-4.9-1.4-3.8-4.3c1.5-3.8,3.1-7.6,4.6-11.5c2.9-7.3,5.8-14.7,8.6-22
		c3.8-9.8,7.5-19.7,11.2-29.5C242.8,58.9,244.2,55.1,245.8,50.9z"/>
	<g>
		<g id="VCdCV4.tif">
			<g>
				<path class="st0" d="M139.8,160c0,1.1,0,2,0,2.9c0,37.9,0.1,75.7,0.1,113.6c0,4.5-0.4,4.9-5,4.9c-4.9,0-9.8,0-14.7,0
					c-0.1,0.3-0.2,0.7-0.3,1c2.4,2,4.7,4,7.1,5.9c1.3,1,2.6,2.1,4.1,2.9c6.5,3.5,8.9,9.2,8.9,16.3c-0.1,21.8-0.2,43.6-0.2,65.4
					c0,27.5,0,54.9,0,82.4c0,1,0,1.9,0,3.6c-1.2-1.1-2-1.7-2.5-2.4c-11.1-14.3-22.1-28.7-33.2-43c-1.9-2.4-2.7-5-2.6-8.1
					c0.1-28,0-55.9,0.1-83.9c0-2.8-0.6-5.1-3-7c-10.6-8.2-21.1-16.5-31.6-24.7c-0.7-0.5-1.4-1-2.7-1.9c0,24.6,0,48.6,0,72.7
					c-0.2,0.1-0.5,0.2-0.7,0.3c-0.8-0.9-1.5-1.8-2.2-2.7c-10.9-14-21.8-28.1-32.7-42.2c-2-2.5-3-5.3-3-8.5c0-47.8,0-95.5,0-143.3
					c0-3.9,0.6-4.5,4.4-4.5c35.2,0,70.4,0.1,105.5,0.1C137,159.7,138.3,159.9,139.8,160z M101.6,220.6c0-6.5-0.1-13,0-19.5
					c0-2.4-0.9-3.3-3.2-3.3c-10.4,0.1-20.8,0-31.2,0c-2.2,0-3.2,0.9-3.2,3.1c0,13.1,0,26.1,0,39.2c0,2,0.8,3,2.8,3
					c10.6,0,21.1,0,31.7,0c2.2,0,3.2-0.9,3.2-3.4C101.6,233.4,101.6,227,101.6,220.6z"/>
			</g>
		</g>
		<path class="st0" d="M268.4,162.4c-0.2-1.5-1-2.6-2.7-2.7c-1,0-2-0.1-3-0.1c-35,0-70,0.1-105,0.1c-1,0-1.9,0-3,0
			c0,99.7,0,199.1,0,299c1.1-1.3,2-2.2,2.7-3.1c10.4-13.4,20.7-26.9,31.2-40.2c3-3.7,4.2-7.6,4.2-12.3c-0.1-38.8-0.1-77.7-0.1-116.6
			c0-1.6,0-3.3,0-5.2c1.5,0,2.5,0,3.5,0l67.1,0.1c4.8,0,5.2-0.4,5.2-5.1c0-37.1,0-74.2,0-111.3C268.4,164.1,268.5,163.2,268.4,162.4
			z M230.2,239.8c0,2.5-1.2,3.4-3.5,3.4c-5.7-0.1-11.3-0.1-17-0.1c-4.8,0-9.6,0-14.5,0c-1.9,0-2.9-0.7-2.9-2.8
			c0.1-13.5,0.1-26.9,0.1-40.4c0-0.6,0.1-1.1,0.2-2c9,0,17.7,0,26.4,0c2.6,0,5.1,0,7.7,0c2.3,0,3.3,1,3.3,3.3
			C230.1,214,230.1,226.9,230.2,239.8z"/>
	</g>
</g>
</svg>
