<svg xmlns="http://www.w3.org/2000/svg" xmlns:xlink="http://www.w3.org/1999/xlink" version="1.1" width="1000" height="1000" viewBox="0 0 1000 1000" xml:space="preserve">
<desc>Created with Fabric.js 3.5.0</desc>
<defs>
</defs>
<rect x="0" y="0" width="100%" height="100%" fill="#ffffff"/>
<g transform="matrix(2.0169 0 0 2.0169 499.9932 499.989)" id="733685">
<g style="" vector-effect="non-scaling-stroke">
		<g transform="matrix(1 0 0 1 -1.7521 -159.7851)" id="Layer_1">
<path style="stroke: none; stroke-width: 1; stroke-dasharray: none; stroke-linecap: butt; stroke-dashoffset: 0; stroke-linejoin: miter; stroke-miterlimit: 4; is-custom-font: none; font-file-url: none; fill: rgb(84,0,0); fill-rule: nonzero; opacity: 1;" transform=" translate(-146.9979, -82.1649)" d="M 245.8 50.9 c -1.2 -0.1 -1.9 -0.4 -2.6 -0.2 c -6.1 1.6 -12.2 3.3 -18.3 5.1 c -10.2 2.9 -19.4 7.8 -27.8 14.6 c -5.6 4.5 -7.7 10.8 -4.6 17.3 c 2.2 4.7 4.9 9.2 7.5 13.7 c 1.6 2.7 1.6 4.9 -0.9 6.7 c -4.1 2.8 -8.2 5.8 -12.8 7.7 c -4.6 1.9 -9.7 1.8 -14.4 -0.9 c -6.6 -3.7 -10.2 -9.8 -13.4 -16.2 c -2.5 -5.1 -2.2 -5.9 3.2 -7.8 c 8.6 -3 12.6 -10.7 13.1 -18.9 c 0.5 -7.5 -1.8 -14.7 -5.4 -21.1 c -6.1 -11 -13 -21.6 -19.6 -32.3 c -2 -3.3 -3.1 -3.3 -5.2 0 c -4.9 7.6 -9.8 15.2 -14.5 22.8 c -4.9 8 -9 16.4 -10.3 25.8 c -1.1 7.6 0.8 14.7 6.8 19.9 c 2.7 2.3 6.2 3.5 9.2 5.5 c 0.9 0.6 1.9 2.5 1.5 3.1 c -3.2 5.3 -6.3 10.8 -10.2 15.7 c -3.4 4.2 -8.5 6.3 -13.9 5.7 c -6.9 -0.8 -12.8 -4.4 -18 -8.9 c -2.5 -2.2 -2.4 -4 -0.7 -7 c 2.7 -4.6 5.5 -9.1 7.4 -14 c 2.3 -5.8 1.8 -11.6 -3.6 -15.7 c -4.9 -3.7 -9.8 -7.6 -15.4 -10.1 c -8.1 -3.7 -16.6 -6.3 -25.1 -9.2 c -2.8 -0.9 -5.9 -1 -9.5 -1.5 c 2.4 6.8 4.5 13 6.9 19.2 c 3.5 9.2 7.3 18.3 10.9 27.5 c 3.4 8.9 6.7 17.9 10.1 26.9 c 1.9 5 1.3 5.9 -4.1 5.9 c -14 0 -28 0 -42.1 0 c -0.9 0 -1.7 0 -2.6 0.1 c -2.2 0.2 -3.5 1.1 -3.3 3.7 c 0.2 2.8 0.1 5.6 0.1 8.4 c 0 5.4 0.4 5.8 5.9 5.8 c 77 0 154 0 230.9 0 c 7.5 0 9.1 0.5 8.9 -8.7 c -0.3 -9.3 1.9 -9.3 -9.1 -9.2 c -13.4 0 -26.8 0 -40.1 0 c -3.7 0 -4.9 -1.4 -3.8 -4.3 c 1.5 -3.8 3.1 -7.6 4.6 -11.5 c 2.9 -7.3 5.8 -14.7 8.6 -22 c 3.8 -9.8 7.5 -19.7 11.2 -29.5 C 242.8 58.9 244.2 55.1 245.8 50.9 z" stroke-linecap="round"/>
</g>
		<g transform="matrix(1 0 0 1 -65.9 67.35)" id="VCdCV4.tif">
<path style="stroke: none; stroke-width: 1; stroke-dasharray: none; stroke-linecap: butt; stroke-dashoffset: 0; stroke-linejoin: miter; stroke-miterlimit: 4; is-custom-font: none; font-file-url: none; fill: rgb(84,0,0); fill-rule: nonzero; opacity: 1;" transform=" translate(-82.85, -309.3)" d="M 139.8 160 c 0 1.1 0 2 0 2.9 c 0 37.9 0.1 75.7 0.1 113.6 c 0 4.5 -0.4 4.9 -5 4.9 c -4.9 0 -9.8 0 -14.7 0 c -0.1 0.3 -0.2 0.7 -0.3 1 c 2.4 2 4.7 4 7.1 5.9 c 1.3 1 2.6 2.1 4.1 2.9 c 6.5 3.5 8.9 9.2 8.9 16.3 c -0.1 21.8 -0.2 43.6 -0.2 65.4 c 0 27.5 0 54.9 0 82.4 c 0 1 0 1.9 0 3.6 c -1.2 -1.1 -2 -1.7 -2.5 -2.4 c -11.1 -14.3 -22.1 -28.7 -33.2 -43 c -1.9 -2.4 -2.7 -5 -2.6 -8.1 c 0.1 -28 0 -55.9 0.1 -83.9 c 0 -2.8 -0.6 -5.1 -3 -7 c -10.6 -8.2 -21.1 -16.5 -31.6 -24.7 c -0.7 -0.5 -1.4 -1 -2.7 -1.9 c 0 24.6 0 48.6 0 72.7 c -0.2 0.1 -0.5 0.2 -0.7 0.3 c -0.8 -0.9 -1.5 -1.8 -2.2 -2.7 c -10.9 -14 -21.8 -28.1 -32.7 -42.2 c -2 -2.5 -3 -5.3 -3 -8.5 c 0 -47.8 0 -95.5 0 -143.3 c 0 -3.9 0.6 -4.5 4.4 -4.5 c 35.2 0 70.4 0.1 105.5 0.1 C 137 159.7 138.3 159.9 139.8 160 z M 101.6 220.6 c 0 -6.5 -0.1 -13 0 -19.5 c 0 -2.4 -0.9 -3.3 -3.2 -3.3 c -10.4 0.1 -20.8 0 -31.2 0 c -2.2 0 -3.2 0.9 -3.2 3.1 c 0 13.1 0 26.1 0 39.2 c 0 2 0.8 3 2.8 3 c 10.6 0 21.1 0 31.7 0 c 2.2 0 3.2 -0.9 3.2 -3.4 C 101.6 233.4 101.6 227 101.6 220.6 z" stroke-linecap="round"/>
</g>
		<g transform="matrix(1 0 0 1 62.85 67.2)" id="Layer_1">
<path style="stroke: none; stroke-width: 1; stroke-dasharray: none; stroke-linecap: butt; stroke-dashoffset: 0; stroke-linejoin: miter; stroke-miterlimit: 4; is-custom-font: none; font-file-url: none; fill: rgb(84,0,0); fill-rule: nonzero; opacity: 1;" transform=" translate(-211.6, -309.15)" d="M 268.4 162.4 c -0.2 -1.5 -1 -2.6 -2.7 -2.7 c -1 0 -2 -0.1 -3 -0.1 c -35 0 -70 0.1 -105 0.1 c -1 0 -1.9 0 -3 0 c 0 99.7 0 199.1 0 299 c 1.1 -1.3 2 -2.2 2.7 -3.1 c 10.4 -13.4 20.7 -26.9 31.2 -40.2 c 3 -3.7 4.2 -7.6 4.2 -12.3 c -0.1 -38.8 -0.1 -77.7 -0.1 -116.6 c 0 -1.6 0 -3.3 0 -5.2 c 1.5 0 2.5 0 3.5 0 l 67.1 0.1 c 4.8 0 5.2 -0.4 5.2 -5.1 c 0 -37.1 0 -74.2 0 -111.3 C 268.4 164.1 268.5 163.2 268.4 162.4 z M 230.2 239.8 c 0 2.5 -1.2 3.4 -3.5 3.4 c -5.7 -0.1 -11.3 -0.1 -17 -0.1 c -4.8 0 -9.6 0 -14.5 0 c -1.9 0 -2.9 -0.7 -2.9 -2.8 c 0.1 -13.5 0.1 -26.9 0.1 -40.4 c 0 -0.6 0.1 -1.1 0.2 -2 c 9 0 17.7 0 26.4 0 c 2.6 0 5.1 0 7.7 0 c 2.3 0 3.3 1 3.3 3.3 C 230.1 214 230.1 226.9 230.2 239.8 z" stroke-linecap="round"/>
</g>
</g>
</g>
</svg>