<?xml version="1.0" encoding="utf-8"?>
<!-- Generator: Adobe Illustrator 26.2.1, SVG Export Plug-In . SVG Version: 6.00 Build 0)  -->
<svg version="1.1" id="Layer_1" xmlns="http://www.w3.org/2000/svg" xmlns:xlink="http://www.w3.org/1999/xlink" x="0px" y="0px"
	 viewBox="0 0 297.46 483.9" style="enable-background:new 0 0 297.46 483.9;" xml:space="preserve">
<style type="text/css">
	.st0{fill:#FFFFFF;stroke:#FFFAFA;stroke-miterlimit:10;}
</style>
<g>
	<path d="M245.76,50.92c-1.16-0.12-1.93-0.41-2.57-0.23c-6.11,1.64-12.22,3.33-18.31,5.08c-10.25,2.94-19.45,7.84-27.78,14.56
		c-5.58,4.51-7.67,10.83-4.64,17.33c2.19,4.7,4.85,9.19,7.47,13.68c1.56,2.68,1.61,4.95-0.95,6.7c-4.09,2.81-8.22,5.8-12.75,7.7
		c-4.65,1.95-9.66,1.79-14.4-0.87c-6.61-3.71-10.23-9.77-13.37-16.25c-2.48-5.13-2.2-5.94,3.16-7.82
		c8.6-3.02,12.55-10.71,13.05-18.94c0.46-7.5-1.84-14.7-5.35-21.08c-6.07-11.04-13.01-21.61-19.64-32.34
		c-2.04-3.3-3.05-3.31-5.21,0.03c-4.89,7.57-9.75,15.17-14.47,22.84c-4.92,7.99-8.96,16.44-10.3,25.81
		c-1.09,7.62,0.8,14.7,6.79,19.89c2.66,2.31,6.24,3.53,9.22,5.51c0.87,0.58,1.87,2.54,1.54,3.1c-3.21,5.34-6.33,10.8-10.2,15.65
		c-3.38,4.24-8.5,6.28-13.92,5.68c-6.95-0.77-12.78-4.42-18.02-8.91c-2.53-2.17-2.4-4.03-0.65-6.96c2.72-4.55,5.5-9.14,7.45-14.04
		c2.28-5.75,1.82-11.59-3.58-15.66c-4.89-3.68-9.85-7.56-15.37-10.07c-8.08-3.68-16.64-6.34-25.09-9.15
		c-2.79-0.93-5.88-0.97-9.45-1.51c2.43,6.81,4.52,13.04,6.87,19.17c3.53,9.2,7.32,18.31,10.88,27.51
		c3.45,8.93,6.71,17.93,10.13,26.88c1.9,4.98,1.3,5.89-4.14,5.89c-14.02-0.02-28.04-0.01-42.07-0.01c-0.86,0-1.71,0.01-2.57,0.07
		c-2.25,0.17-3.51,1.13-3.34,3.67c0.19,2.77,0.1,5.57,0.09,8.35c-0.03,5.37,0.39,5.81,5.85,5.81c76.98,0,153.96-0.02,230.94,0.01
		c7.46,0,9.13,0.46,8.85-8.68c-0.28-9.26,1.87-9.26-9.06-9.25c-13.38,0.02-26.76,0.01-40.14,0.01c-3.69,0-4.93-1.44-3.77-4.33
		c1.53-3.82,3.09-7.64,4.6-11.47c2.88-7.33,5.77-14.66,8.59-22.02c3.76-9.81,7.46-19.65,11.18-29.48
		C242.79,58.93,244.21,55.07,245.76,50.92z"/>
	<g>
		<g id="VCdCV4.tif">
			<g>
				<path d="M140.53,159.96c0,1.09,0,1.98,0,2.88c0.02,37.86,0.05,75.71,0.07,113.57c0,4.54-0.37,4.88-5.01,4.86
					c-4.89-0.02-9.78,0-14.67,0c-0.1,0.32-0.2,0.65-0.3,0.97c2.36,1.98,4.7,3.99,7.1,5.92c1.29,1.04,2.62,2.08,4.07,2.86
					c6.54,3.52,8.95,9.19,8.92,16.32c-0.1,21.8-0.17,43.59-0.19,65.39c-0.03,27.46,0.01,54.91,0.02,82.37c0,0.96,0,1.93,0,3.61
					c-1.18-1.12-1.96-1.68-2.52-2.41c-11.09-14.32-22.12-28.69-33.24-42.98c-1.89-2.43-2.65-5.02-2.64-8.07
					c0.05-27.95,0.01-55.91,0.05-83.86c0-2.83-0.63-5.14-3.01-6.98c-10.58-8.19-21.08-16.48-31.61-24.72
					c-0.69-0.54-1.43-1.02-2.65-1.89c0,24.61,0,48.64,0,72.67c-0.22,0.1-0.45,0.19-0.67,0.29c-0.75-0.91-1.52-1.8-2.24-2.73
					c-10.9-14.05-21.79-28.11-32.71-42.15c-1.96-2.52-2.95-5.27-2.95-8.51c0.04-47.76,0.02-95.51,0.03-143.27
					c0-3.9,0.6-4.52,4.44-4.52c35.18,0.03,70.37,0.07,105.55,0.13C137.66,159.71,138.97,159.86,140.53,159.96z M102.33,220.56
					c0-6.49-0.05-12.97,0.03-19.46c0.03-2.35-0.91-3.3-3.24-3.29c-10.39,0.05-20.78,0.04-31.17,0c-2.19-0.01-3.19,0.91-3.18,3.13
					c0.03,13.05,0.03,26.11-0.01,39.16c-0.01,1.98,0.83,3.01,2.77,3.01c10.56,0.02,21.11,0.03,31.67,0c2.16,0,3.24-0.93,3.19-3.35
					C102.25,233.36,102.33,226.96,102.33,220.56z"/>
			</g>
		</g>
		<g>
			<path d="M196.84,281.24c-0.99,0-1.99,0-3.5,0c0,1.96,0,3.6,0,5.25c0.01,38.85-0.04,77.71,0.1,116.56
				c0.02,4.75-1.2,8.6-4.16,12.34c-10.52,13.29-20.81,26.78-31.2,40.18c-0.75,0.97-1.61,1.85-2.73,3.14c0-99.85,0-199.26,0-298.99
				c1.04,0,2.01,0,2.98,0c35.02-0.04,70.03-0.08,105.05-0.12c1,0,1.99,0.07,2.99,0.12c1.72,0.08,2.49,1.16,2.69,2.71
				c0.11,0.82,0.06,1.66,0.06,2.49c0,37.11,0,74.21,0,111.32c0,4.65-0.42,5.07-5.17,5.06"/>
			<path class="st0" d="M195.95,243.08c4.82-0.02,9.64-0.04,14.46-0.02c5.65,0.02,11.3,0.05,16.95,0.11
				c2.3,0.02,3.52-0.82,3.51-3.36c-0.06-12.88-0.04-25.77,0-38.65c0.01-2.31-1.04-3.32-3.3-3.29c-2.58,0.03-5.15,0.01-7.73,0.01
				c-8.72,0-17.44,0-26.41,0c-0.11,0.89-0.23,1.45-0.23,2.01c-0.04,13.47-0.03,26.93-0.11,40.4
				C193.09,242.37,194.05,243.09,195.95,243.08"/>
		</g>
	</g>
</g>
</svg>
